# xmcd
#
# Track frame offsets: 
#        150
#        19309
#        33639
#        51641
#        69724
#        86847
#        105519
#        127231
#        144348
#        160968
#        182513
#        200333
#        217370
#        239690
#        262604
#
# Disc length: 3724 seconds
#
# Revision: 0
# Processed by: cddbd v1.5PL3 Copyright (c) Steve Scherf et al.
# Submitted via: ExactAudioCopy v0.95a3
#
DISCID=e80e8a0f
DTITLE=Jamie Reno - All American Music
DYEAR=2004
DGENRE=Bluegrass
TTITLE0=Summer Moon
TTITLE1=Just Pickin'
TTITLE2=The Road
TTITLE3=Setting Down
TTITLE4=All American Music
TTITLE5=Mile By Mile
TTITLE6=Boston Blues
TTITLE7=The Legend Will Remain
TTITLE8=My Heart Is Whrer My Home Is
TTITLE9=Emerald City
TTITLE10=Roadside Diner
TTITLE11=Goin' To California
TTITLE12=Movin' On
TTITLE13=Whatever Happened To Hee Haw
TTITLE14=Almost Home
EXTD=
EXTT0=
EXTT1=
EXTT2=
EXTT3=
EXTT4=
EXTT5=
EXTT6=
EXTT7=
EXTT8=
EXTT9=
EXTT10=
EXTT11=
EXTT12=
EXTT13=
EXTT14=
PLAYORDER=
